<svg version="1.1" id="Layer_1" xmlns="http://www.w3.org/2000/svg" xmlns:xlink="http://www.w3.org/1999/xlink" x="0px" y="0px"
	 width="100%" viewBox="0 0 3207 458" enable-background="new 0 0 3207 458" xml:space="preserve">
<path fill="#000000" opacity="1.000000" stroke="none" 
	d="
M544.000000,459.000000 
	C363.075470,459.000000 182.150955,459.000000 1.000000,459.000000 
	C1.000000,310.970703 1.000000,162.941299 1.326305,14.202197 
	C2.471027,15.086831 3.419686,16.628553 4.088245,18.283430 
	C13.515462,41.618565 22.898304,64.971619 32.304157,88.315384 
	C58.246525,152.699997 84.196815,217.081436 110.139862,281.465790 
	C132.485703,336.922699 154.834351,392.378479 177.137634,447.852509 
	C178.032639,450.078552 179.091217,451.102600 181.754166,451.079803 
	C199.416733,450.928619 217.081802,450.930420 234.744476,451.075226 
	C237.525208,451.097992 238.782822,450.245850 239.808594,447.686371 
	C260.813080,395.277618 281.890869,342.898163 302.995514,290.529602 
	C333.572754,214.656052 364.188843,138.798157 394.774445,62.927971 
	C401.822632,45.444447 408.814545,27.938261 416.009705,10.000359 
	C395.593323,10.000359 375.641388,9.943774 355.692078,10.144708 
	C354.528259,10.156430 352.840179,12.041321 352.310883,13.408618 
	C322.890167,89.411682 293.549774,165.445892 264.240784,241.492188 
	C246.737228,286.907593 229.314362,332.354095 211.764709,377.751648 
	C211.138275,379.372131 209.545761,380.619141 208.403503,382.040222 
	C207.298126,380.610046 205.783157,379.340454 205.149933,377.725159 
	C197.773682,358.909546 190.521362,340.045258 183.253220,321.187286 
	C143.751251,218.695312 104.238365,116.207504 64.830811,13.679229 
	C63.646584,10.598188 62.058945,9.903078 58.990150,9.925882 
	C39.660984,10.069522 20.330229,9.999454 1.000000,10.000000 
	C1.000000,7.000777 1.000000,4.001554 1.000000,1.001165 
	C528.029358,1.000000 1055.058716,1.000000 1582.828125,1.324130 
	C1582.577393,2.157313 1581.633545,2.808122 1580.588745,3.154305 
	C1563.425537,8.840971 1553.836670,23.170021 1555.085815,41.330788 
	C1555.982788,54.373089 1566.380859,67.766891 1578.829956,71.916252 
	C1593.503906,76.807152 1607.908325,73.150444 1617.297363,62.150524 
	C1634.977905,41.436512 1627.173340,12.197251 1601.578613,3.072603 
	C1600.893188,2.828295 1600.519165,1.710470 1600.000000,1.000003 
	C2134.500000,1.000000 2669.000000,0.999180 3203.500000,1.041180 
	C3205.000000,1.041298 3206.500000,1.666650 3207.551270,2.647077 
	C3189.845215,3.294171 3172.587646,3.294171 3155.012939,3.294171 
	C3155.012939,65.167023 3155.012939,126.268509 3155.012939,187.369995 
	C3154.605957,187.643112 3154.199219,187.916245 3153.792236,188.189362 
	C3152.662598,186.957031 3151.198730,185.898239 3150.455078,184.465515 
	C3142.463379,169.070328 3131.239502,156.446091 3116.833984,146.988205 
	C3079.197266,122.277954 3038.475586,118.923645 2996.618408,132.917252 
	C2950.649170,148.285721 2922.677490,181.968552 2908.014160,227.098282 
	C2894.814453,267.723083 2894.788330,308.897522 2906.584961,349.857880 
	C2915.827881,381.951904 2932.790039,409.298828 2959.562744,429.912659 
	C2979.471680,445.241577 3001.973877,454.294403 3026.988770,457.076996 
	C3028.050781,457.195099 3028.998779,458.335693 3030.000000,459.000000 
	C2917.303955,459.000000 2804.607910,459.000000 2691.166992,458.644043 
	C2691.613770,457.852417 2692.772217,457.227814 2694.002686,457.008545 
	C2731.345215,450.354462 2761.362549,433.498169 2777.614502,397.285553 
	C2778.116455,396.166565 2779.683594,395.525452 2781.351807,394.179504 
	C2781.351807,414.056274 2781.351807,432.457947 2781.351807,450.752808 
	C2799.600098,450.752808 2817.532715,450.752808 2835.667236,450.752808 
	C2835.740723,449.891266 2835.841553,449.259460 2835.841797,448.627655 
	C2835.847412,376.139099 2835.932617,303.650391 2835.778320,231.162155 
	C2835.742920,214.544342 2832.651611,198.432922 2824.943848,183.472733 
	C2811.229004,156.853500 2788.960938,140.499832 2761.214111,131.042465 
	C2736.100342,122.482574 2710.230713,120.426514 2683.882324,122.963997 
	C2650.855469,126.144600 2620.997803,136.668686 2596.968018,160.463959 
	C2581.802734,175.481049 2572.537354,193.648376 2569.245605,215.303711 
	C2586.177002,217.255249 2602.773682,219.168182 2619.246582,221.066849 
	C2625.972412,200.527390 2636.002686,186.626831 2651.614258,177.907288 
	C2681.281982,161.336716 2712.433594,160.759613 2743.405762,172.809464 
	C2771.424561,183.710373 2784.436279,206.689957 2781.978271,236.270111 
	C2780.935547,248.817459 2774.232910,256.414215 2761.946289,258.868927 
	C2759.502686,259.357117 2757.020996,259.746460 2754.538330,259.934479 
	C2727.479004,261.983673 2700.417969,264.011719 2673.353271,265.988037 
	C2652.682373,267.497467 2632.550049,271.317444 2613.460938,279.697754 
	C2596.301025,287.231110 2582.002441,298.186615 2572.280273,314.506134 
	C2562.268555,331.312195 2559.784668,349.784271 2561.193604,368.837250 
	C2562.862793,391.407745 2571.111328,411.327698 2587.279785,427.516296 
	C2604.364014,444.621979 2625.519775,453.362396 2649.069580,457.064362 
	C2650.121582,457.229767 2651.026611,458.333374 2652.000000,459.000000 
	C2208.303955,459.000000 1764.607910,459.000000 1320.163086,458.633057 
	C1320.610474,457.846741 1321.777100,457.202850 1323.007202,457.040710 
	C1362.547241,451.829102 1393.902954,434.030640 1413.716919,398.324524 
	C1414.414551,397.067291 1415.923218,396.260162 1417.053955,395.243286 
	C1417.460693,395.510712 1417.867432,395.778137 1418.274170,396.045563 
	C1418.274170,414.287598 1418.274170,432.529602 1418.274170,450.639038 
	C1436.160034,450.639038 1453.549927,450.639038 1470.666992,450.639038 
	C1470.666992,301.385864 1470.666992,152.495560 1470.666992,3.610676 
	C1453.075562,3.610676 1435.820312,3.610676 1417.995361,3.610676 
	C1417.995361,65.083153 1417.995361,126.273361 1417.995361,187.463562 
	C1417.520508,187.700058 1417.045654,187.936539 1416.570801,188.173035 
	C1415.461548,186.846924 1414.063354,185.670349 1413.287964,184.171524 
	C1405.635254,169.380142 1394.809204,157.328659 1381.206299,147.918732 
	C1348.629395,125.383385 1312.455444,120.296272 1274.567383,128.683487 
	C1224.784912,139.703705 1192.097412,171.357269 1174.255371,218.159195 
	C1156.687378,264.242157 1156.571655,311.277069 1172.255127,357.906982 
	C1184.369751,393.925751 1206.267456,422.652222 1240.101074,441.310730 
	C1255.827026,449.983307 1272.630371,455.270569 1290.520996,457.110107 
	C1291.402832,457.200775 1292.176147,458.345886 1293.000000,459.000000 
	C1056.637329,459.000000 820.274597,459.000000 583.133911,458.652832 
	C585.477173,457.519440 588.583313,456.665741 591.722107,455.957214 
	C626.232178,448.167145 653.800537,431.223511 668.883850,397.683319 
	C669.454590,396.414185 670.876953,395.527985 672.728760,393.605621 
	C672.728760,413.701324 672.728760,432.138763 672.728760,450.633423 
	C690.888611,450.633423 708.916443,450.633423 726.918945,450.633423 
	C726.959412,449.932526 726.995361,449.599762 726.995483,449.267029 
	C727.019592,380.810211 727.166809,312.352966 726.949280,243.896912 
	C726.909302,231.300537 726.860596,218.396927 724.267212,206.175964 
	C717.595581,174.736374 698.490540,151.946472 669.781311,138.362320 
	C625.064636,117.204041 578.805115,116.449829 532.469238,132.683441 
	C505.594879,142.098755 484.209106,158.998459 470.591675,184.630615 
	C465.522980,194.171478 462.122284,204.267212 460.836304,215.336380 
	C477.826782,217.284744 494.303131,219.174133 510.766846,221.062103 
	C511.308350,219.364731 511.682617,218.088135 512.120667,216.833786 
	C518.973755,197.210068 531.412048,182.408371 550.529724,173.945816 
	C576.839478,162.299652 603.911011,161.969940 630.837708,171.181824 
	C661.125549,181.543625 675.596985,204.546158 673.180725,236.439713 
	C672.183838,249.597336 664.786499,257.779999 651.628845,258.965546 
	C626.433167,261.235748 601.204651,263.172089 575.969604,264.964478 
	C554.860413,266.463806 533.933228,268.833221 513.891602,276.084503 
	C478.990417,288.712250 456.191101,311.582428 452.812531,350.085449 
	C450.112946,380.850708 458.181854,408.139008 481.133942,429.841766 
	C497.751801,445.555084 518.085876,453.501251 540.383606,457.055908 
	C541.659912,457.259369 542.797729,458.331909 544.000000,459.000000 
M2168.580322,315.499969 
	C2168.580322,360.572418 2168.580322,405.644836 2168.580322,450.692139 
	C2187.567139,450.692139 2205.967773,450.692139 2224.708984,450.692139 
	C2224.708984,448.414734 2224.703369,446.441956 2224.709717,444.469269 
	C2224.846924,403.145752 2224.949707,361.822021 2225.230713,320.499542 
	C2225.244385,318.494629 2226.353760,316.073547 2227.736572,314.564850 
	C2249.792725,290.502472 2271.996582,266.575897 2294.115479,242.570862 
	C2298.862549,237.419083 2299.325439,237.353989 2303.272217,242.903992 
	C2351.785400,311.127258 2400.314941,379.339111 2448.755615,447.613983 
	C2450.610840,450.229126 2452.542480,451.100983 2455.695557,451.077942 
	C2476.191406,450.928009 2496.688721,451.004913 2517.185547,450.992523 
	C2518.572510,450.991669 2519.959473,450.868500 2521.934814,450.774139 
	C2461.441650,366.597168 2401.374268,283.012848 2341.144775,199.202789 
	C2396.184570,136.229294 2451.070557,73.431725 2506.511475,9.998906 
	C2484.084961,9.998906 2462.771484,10.094533 2441.460449,9.907157 
	C2437.800537,9.874975 2435.357422,10.930453 2432.952148,13.648019 
	C2413.863770,35.213524 2394.657227,56.674736 2375.451172,78.135994 
	C2341.809814,115.727585 2308.133545,153.288101 2274.490723,190.878479 
	C2259.946533,207.129257 2245.483398,223.452850 2230.868408,239.639557 
	C2229.635742,241.004623 2227.528564,241.579926 2224.638184,243.181030 
	C2224.638184,164.334824 2224.638184,87.266937 2224.638184,10.285433 
	C2205.578857,10.285433 2187.145508,10.285433 2168.583008,10.285433 
	C2168.583008,111.881248 2168.583008,213.190598 2168.580322,315.499969 
M867.716492,280.500366 
	C868.467651,270.723938 868.604004,260.852478 870.097107,251.190689 
	C873.276001,230.619919 880.940369,211.833923 895.147766,196.252838 
	C912.660095,177.047333 934.998413,168.550781 960.559998,168.345551 
	C977.254456,168.211502 993.324036,171.448257 1007.235168,181.437332 
	C1030.087280,197.846527 1039.395264,221.642471 1039.738647,248.378571 
	C1040.581177,314.017731 1040.082520,379.674103 1040.123169,445.323547 
	C1040.124268,447.100891 1040.123413,448.878235 1040.123413,450.748199 
	C1058.207764,450.748199 1075.780518,450.748199 1093.754639,450.748199 
	C1093.754639,448.704895 1093.754517,446.909851 1093.754517,445.114807 
	C1093.754150,379.132050 1093.960815,313.148132 1093.577637,247.167587 
	C1093.501831,234.106400 1092.282959,220.825256 1089.630493,208.052780 
	C1084.104614,181.444565 1070.694580,159.233841 1048.194702,143.340073 
	C1020.349060,123.670082 988.897583,118.733620 955.970886,123.491791 
	C917.743469,129.015961 888.329041,147.928665 871.289001,183.754196 
	C870.783203,184.817612 869.644287,185.579910 868.800598,186.482605 
	C868.406311,186.286575 868.011963,186.090530 867.617676,185.894485 
	C867.617676,166.996552 867.617676,148.098618 867.617676,129.247375 
	C849.809021,129.247375 832.548950,129.247375 815.254761,129.247375 
	C815.254761,236.624008 815.254761,343.750183 815.254761,450.687988 
	C832.910828,450.687988 850.155640,450.687988 867.713928,450.687988 
	C867.713928,394.082520 867.713928,337.791229 867.716492,280.500366 
M1836.501465,405.177917 
	C1832.169312,405.117188 1827.821289,405.273438 1823.508057,404.955475 
	C1809.996582,403.959473 1797.840576,400.161835 1791.166260,387.010437 
	C1786.910278,378.624390 1786.717041,369.397522 1786.719971,360.202148 
	C1786.739868,299.705505 1786.733276,239.208878 1786.735229,178.712234 
	C1786.735229,177.088852 1786.735107,175.465485 1786.735107,173.279114 
	C1821.103027,173.279114 1854.963867,173.279114 1888.510376,173.279114 
	C1888.510376,158.238037 1888.510376,143.768341 1888.510376,128.802658 
	C1854.289307,128.802658 1820.555176,128.802658 1786.171997,128.802658 
	C1786.171997,97.014519 1786.171997,65.726784 1786.171997,34.301403 
	C1768.076050,36.517361 1750.643921,38.652027 1733.109375,40.799248 
	C1733.109375,67.927414 1733.115234,94.418106 1733.105469,120.908806 
	C1733.102905,128.154495 1732.265869,128.995453 1725.219727,128.996750 
	C1708.936157,128.999725 1692.652588,128.997696 1676.209717,128.997696 
	C1676.209717,144.005371 1676.209717,158.592834 1676.209717,173.524506 
	C1695.177246,173.524506 1713.935181,173.524506 1733.107910,173.524506 
	C1733.107910,175.832916 1733.108032,177.801102 1733.108032,179.769272 
	C1733.106934,240.599503 1733.032227,301.429932 1733.189087,362.259766 
	C1733.210815,370.720001 1733.766724,379.275940 1735.122681,387.617310 
	C1739.056885,411.817657 1750.848633,430.815643 1773.497070,441.803314 
	C1787.825562,448.754547 1803.247070,450.944427 1819.017578,450.981415 
	C1843.349487,451.038513 1867.681763,451.003418 1892.013794,450.991333 
	C1893.098755,450.990814 1894.183838,450.830414 1895.210205,450.749115 
	C1895.210205,435.378754 1895.210205,420.441956 1895.210205,405.176605 
	C1875.776245,405.176605 1856.638428,405.176605 1836.501465,405.177917 
M1564.338867,161.499802 
	C1564.338867,257.906433 1564.338867,354.313080 1564.338867,450.801025 
	C1582.009033,450.801025 1599.109131,450.801025 1616.463379,450.801025 
	C1616.463379,343.558319 1616.463379,236.521622 1616.463379,129.295792 
	C1599.075806,129.295792 1581.876099,129.295792 1564.340332,129.295792 
	C1564.340332,139.897064 1564.340332,150.198425 1564.338867,161.499802 
z"/>
<path fill="#FEFEFE" opacity="1.000000" stroke="none" 
	d="
M1293.468628,459.000000 
	C1292.176147,458.345886 1291.402832,457.200775 1290.520996,457.110107 
	C1272.630371,455.270569 1255.827026,449.983307 1240.101074,441.310730 
	C1206.267456,422.652222 1184.369751,393.925751 1172.255127,357.906982 
	C1156.571655,311.277069 1156.687378,264.242157 1174.255371,218.159195 
	C1192.097412,171.357269 1224.784912,139.703705 1274.567383,128.683487 
	C1312.455444,120.296272 1348.629395,125.383385 1381.206299,147.918732 
	C1394.809204,157.328659 1405.635254,169.380142 1413.287964,184.171524 
	C1414.063354,185.670349 1415.461548,186.846924 1416.570801,188.173035 
	C1417.045654,187.936539 1417.520508,187.700058 1417.995361,187.463562 
	C1417.995361,126.273361 1417.995361,65.083153 1417.995361,3.610676 
	C1435.820312,3.610676 1453.075562,3.610676 1470.666992,3.610676 
	C1470.666992,152.495560 1470.666992,301.385864 1470.666992,450.639038 
	C1453.549927,450.639038 1436.160034,450.639038 1418.274170,450.639038 
	C1418.274170,432.529602 1418.274170,414.287598 1418.274170,396.045563 
	C1417.867432,395.778137 1417.460693,395.510712 1417.053955,395.243286 
	C1415.923218,396.260162 1414.414551,397.067291 1413.716919,398.324524 
	C1393.902954,434.030640 1362.547241,451.829102 1323.007202,457.040710 
	C1321.777100,457.202850 1320.610474,457.846741 1319.707031,458.633057 
	C1311.312378,459.000000 1302.624878,459.000000 1293.468628,459.000000 
M1283.213745,176.603363 
	C1255.177856,186.178116 1236.081543,205.398010 1225.135254,232.416336 
	C1210.577881,268.348724 1209.933350,305.301422 1222.295166,341.742126 
	C1235.621216,381.025269 1262.697266,405.209259 1305.006348,410.472839 
	C1344.969116,415.444519 1386.054810,394.893127 1404.067993,359.004242 
	C1426.829346,313.655579 1426.374512,267.643524 1403.024048,222.675568 
	C1390.194946,197.969254 1369.167969,182.125122 1342.050415,175.012283 
	C1322.609619,169.913040 1303.185547,170.592514 1283.213745,176.603363 
z"/>
<path fill="#FEFEFE" opacity="1.000000" stroke="none" 
	d="
M3030.468750,459.000000 
	C3028.998779,458.335693 3028.050781,457.195099 3026.988770,457.076996 
	C3001.973877,454.294403 2979.471680,445.241577 2959.562744,429.912659 
	C2932.790039,409.298828 2915.827881,381.951904 2906.584961,349.857880 
	C2894.788330,308.897522 2894.814453,267.723083 2908.014160,227.098282 
	C2922.677490,181.968552 2950.649170,148.285721 2996.618408,132.917252 
	C3038.475586,118.923645 3079.197266,122.277954 3116.833984,146.988205 
	C3131.239502,156.446091 3142.463379,169.070328 3150.455078,184.465515 
	C3151.198730,185.898239 3152.662598,186.957031 3153.792236,188.189362 
	C3154.199219,187.916245 3154.605957,187.643112 3155.012939,187.369995 
	C3155.012939,126.268509 3155.012939,65.167023 3155.012939,3.294171 
	C3172.587646,3.294171 3189.845215,3.294171 3207.551270,3.147086 
	C3208.000000,152.020889 3208.000000,301.041779 3207.531250,450.532166 
	C3189.820557,451.001648 3172.578369,451.001648 3155.036621,451.001648 
	C3155.036621,432.235748 3155.036621,414.132385 3155.036621,396.029022 
	C3154.620361,395.744659 3154.204102,395.460297 3153.787842,395.175934 
	C3152.563721,396.518555 3150.982666,397.675385 3150.172119,399.233093 
	C3143.617920,411.828857 3134.580811,422.365601 3123.552246,431.162048 
	C3104.795654,446.122498 3083.363037,454.618195 3059.505371,457.102661 
	C3058.613770,457.195496 3057.832520,458.343597 3057.000000,458.999969 
	C3048.312500,459.000000 3039.625000,459.000000 3030.468750,459.000000 
M3057.421875,171.848389 
	C3015.719727,169.790695 2980.969482,190.228928 2963.964844,228.402618 
	C2946.655029,267.260956 2946.296143,307.292023 2961.225830,346.811615 
	C2975.161621,383.700684 3002.044678,406.112976 3041.923828,410.289825 
	C3076.105957,413.870056 3105.545898,403.224670 3128.602783,377.121887 
	C3144.526367,359.094574 3152.553223,337.482849 3155.562012,313.932159 
	C3159.618408,282.183929 3156.395264,251.406281 3140.367676,223.129944 
	C3122.403809,191.437454 3094.940674,174.214966 3057.421875,171.848389 
z"/>
<path fill="#FEFEFE" opacity="1.000000" stroke="none" 
	d="
M1.000000,10.399996 
	C20.330229,9.999454 39.660984,10.069522 58.990150,9.925882 
	C62.058945,9.903078 63.646584,10.598188 64.830811,13.679229 
	C104.238365,116.207504 143.751251,218.695312 183.253220,321.187286 
	C190.521362,340.045258 197.773682,358.909546 205.149933,377.725159 
	C205.783157,379.340454 207.298126,380.610046 208.403503,382.040222 
	C209.545761,380.619141 211.138275,379.372131 211.764709,377.751648 
	C229.314362,332.354095 246.737228,286.907593 264.240784,241.492188 
	C293.549774,165.445892 322.890167,89.411682 352.310883,13.408618 
	C352.840179,12.041321 354.528259,10.156430 355.692078,10.144708 
	C375.641388,9.943774 395.593323,10.000359 416.009705,10.000359 
	C408.814545,27.938261 401.822632,45.444447 394.774445,62.927971 
	C364.188843,138.798157 333.572754,214.656052 302.995514,290.529602 
	C281.890869,342.898163 260.813080,395.277618 239.808594,447.686371 
	C238.782822,450.245850 237.525208,451.097992 234.744476,451.075226 
	C217.081802,450.930420 199.416733,450.928619 181.754166,451.079803 
	C179.091217,451.102600 178.032639,450.078552 177.137634,447.852509 
	C154.834351,392.378479 132.485703,336.922699 110.139862,281.465790 
	C84.196815,217.081436 58.246525,152.699997 32.304157,88.315384 
	C22.898304,64.971619 13.515462,41.618565 4.088245,18.283430 
	C3.419686,16.628553 2.471027,15.086831 1.326305,13.746246 
	C1.000000,12.933331 1.000000,11.866661 1.000000,10.399996 
z"/>
<path fill="#FEFEFE" opacity="1.000000" stroke="none" 
	d="
M2652.468750,459.000000 
	C2651.026611,458.333374 2650.121582,457.229767 2649.069580,457.064362 
	C2625.519775,453.362396 2604.364014,444.621979 2587.279785,427.516296 
	C2571.111328,411.327698 2562.862793,391.407745 2561.193604,368.837250 
	C2559.784668,349.784271 2562.268555,331.312195 2572.280273,314.506134 
	C2582.002441,298.186615 2596.301025,287.231110 2613.460938,279.697754 
	C2632.550049,271.317444 2652.682373,267.497467 2673.353271,265.988037 
	C2700.417969,264.011719 2727.479004,261.983673 2754.538330,259.934479 
	C2757.020996,259.746460 2759.502686,259.357117 2761.946289,258.868927 
	C2774.232910,256.414215 2780.935547,248.817459 2781.978271,236.270111 
	C2784.436279,206.689957 2771.424561,183.710373 2743.405762,172.809464 
	C2712.433594,160.759613 2681.281982,161.336716 2651.614258,177.907288 
	C2636.002686,186.626831 2625.972412,200.527390 2619.246582,221.066849 
	C2602.773682,219.168182 2586.177002,217.255249 2569.245605,215.303711 
	C2572.537354,193.648376 2581.802734,175.481049 2596.968018,160.463959 
	C2620.997803,136.668686 2650.855469,126.144600 2683.882324,122.963997 
	C2710.230713,120.426514 2736.100342,122.482574 2761.214111,131.042465 
	C2788.960938,140.499832 2811.229004,156.853500 2824.943848,183.472733 
	C2832.651611,198.432922 2835.742920,214.544342 2835.778320,231.162155 
	C2835.932617,303.650391 2835.847412,376.139099 2835.841797,448.627655 
	C2835.841553,449.259460 2835.740723,449.891266 2835.667236,450.752808 
	C2817.532715,450.752808 2799.600098,450.752808 2781.351807,450.752808 
	C2781.351807,432.457947 2781.351807,414.056274 2781.351807,394.179504 
	C2779.683594,395.525452 2778.116455,396.166565 2777.614502,397.285553 
	C2761.362549,433.498169 2731.345215,450.354462 2694.002686,457.008545 
	C2692.772217,457.227814 2691.613770,457.852417 2690.710938,458.644043 
	C2678.312500,459.000000 2665.625000,459.000000 2652.468750,459.000000 
M2658.998779,412.667053 
	C2669.899414,413.477448 2680.846680,415.353851 2691.690674,414.876038 
	C2714.171387,413.885590 2734.021484,405.371429 2750.523926,389.972015 
	C2778.318359,364.035645 2784.671387,330.885986 2781.752441,294.627869 
	C2778.710449,295.422974 2775.733887,296.636810 2772.668213,296.933533 
	C2747.350830,299.384155 2722.024170,301.743469 2696.685791,303.967041 
	C2681.784668,305.274658 2666.816162,305.996613 2652.497314,310.958618 
	C2638.758057,315.719818 2626.918701,322.929260 2620.357910,336.582123 
	C2605.376221,367.759552 2623.411865,403.748566 2658.998779,412.667053 
z"/>
<path fill="#FEFEFE" opacity="1.000000" stroke="none" 
	d="
M544.468628,459.000000 
	C542.797729,458.331909 541.659912,457.259369 540.383606,457.055908 
	C518.085876,453.501251 497.751801,445.555084 481.133942,429.841766 
	C458.181854,408.139008 450.112946,380.850708 452.812531,350.085449 
	C456.191101,311.582428 478.990417,288.712250 513.891602,276.084503 
	C533.933228,268.833221 554.860413,266.463806 575.969604,264.964478 
	C601.204651,263.172089 626.433167,261.235748 651.628845,258.965546 
	C664.786499,257.779999 672.183838,249.597336 673.180725,236.439713 
	C675.596985,204.546158 661.125549,181.543625 630.837708,171.181824 
	C603.911011,161.969940 576.839478,162.299652 550.529724,173.945816 
	C531.412048,182.408371 518.973755,197.210068 512.120667,216.833786 
	C511.682617,218.088135 511.308350,219.364731 510.766846,221.062103 
	C494.303131,219.174133 477.826782,217.284744 460.836304,215.336380 
	C462.122284,204.267212 465.522980,194.171478 470.591675,184.630615 
	C484.209106,158.998459 505.594879,142.098755 532.469238,132.683441 
	C578.805115,116.449829 625.064636,117.204041 669.781311,138.362320 
	C698.490540,151.946472 717.595581,174.736374 724.267212,206.175964 
	C726.860596,218.396927 726.909302,231.300537 726.949280,243.896912 
	C727.166809,312.352966 727.019592,380.810211 726.995483,449.267029 
	C726.995361,449.599762 726.959412,449.932526 726.918945,450.633423 
	C708.916443,450.633423 690.888611,450.633423 672.728760,450.633423 
	C672.728760,432.138763 672.728760,413.701324 672.728760,393.605621 
	C670.876953,395.527985 669.454590,396.414185 668.883850,397.683319 
	C653.800537,431.223511 626.232178,448.167145 591.722107,455.957214 
	C588.583313,456.665741 585.477173,457.519440 582.677979,458.652832 
	C570.312439,459.000000 557.624878,459.000000 544.468628,459.000000 
M621.946106,301.417358 
	C610.494568,302.278259 599.000244,302.770874 587.602600,304.095490 
	C574.098389,305.664886 560.492676,307.139557 547.271667,310.151245 
	C533.541626,313.278900 521.541931,320.284821 513.899841,332.786438 
	C498.365601,358.198578 508.840546,393.557709 535.816284,407.120605 
	C553.285278,415.903656 571.840088,417.042480 590.772217,414.124847 
	C624.415161,408.940125 648.586060,390.688507 663.650818,360.305542 
	C673.974182,339.485046 674.372681,317.102020 673.653564,294.432770 
	C670.398499,295.326935 667.270020,296.624176 664.034729,296.998901 
	C650.331482,298.586182 636.596436,299.899231 621.946106,301.417358 
z"/>
<path fill="#FDFDFD" opacity="1.000000" stroke="none" 
	d="
M1599.532471,1.000003 
	C1600.519165,1.710470 1600.893188,2.828295 1601.578613,3.072603 
	C1627.173340,12.197251 1634.977905,41.436512 1617.297363,62.150524 
	C1607.908325,73.150444 1593.503906,76.807152 1578.829956,71.916252 
	C1566.380859,67.766891 1555.982788,54.373089 1555.085815,41.330788 
	C1553.836670,23.170021 1563.425537,8.840971 1580.588745,3.154305 
	C1581.633545,2.808122 1582.577393,2.157313 1583.284180,1.324130 
	C1588.354980,1.000000 1593.709839,1.000000 1599.532471,1.000003 
z"/>
<path fill="#000000" opacity="1.000000" stroke="none" 
	d="
M3057.468750,458.999969 
	C3057.832520,458.343597 3058.613770,457.195496 3059.505371,457.102661 
	C3083.363037,454.618195 3104.795654,446.122498 3123.552246,431.162048 
	C3134.580811,422.365601 3143.617920,411.828857 3150.172119,399.233093 
	C3150.982666,397.675385 3152.563721,396.518555 3153.787842,395.175934 
	C3154.204102,395.460297 3154.620361,395.744659 3155.036621,396.029022 
	C3155.036621,414.132385 3155.036621,432.235748 3155.036621,451.001648 
	C3172.578369,451.001648 3189.820557,451.001648 3207.531250,451.000824 
	C3208.000000,453.659302 3208.000000,456.318604 3208.000000,459.000000 
	C3157.979248,459.000000 3107.958252,459.000000 3057.468750,458.999969 
z"/>
<path fill="#FEFEFE" opacity="1.000000" stroke="none" 
	d="
M2168.581543,314.999939 
	C2168.583008,213.190598 2168.583008,111.881248 2168.583008,10.285433 
	C2187.145508,10.285433 2205.578857,10.285433 2224.638184,10.285433 
	C2224.638184,87.266937 2224.638184,164.334824 2224.638184,243.181030 
	C2227.528564,241.579926 2229.635742,241.004623 2230.868408,239.639557 
	C2245.483398,223.452850 2259.946533,207.129257 2274.490723,190.878479 
	C2308.133545,153.288101 2341.809814,115.727585 2375.451172,78.135994 
	C2394.657227,56.674736 2413.863770,35.213524 2432.952148,13.648019 
	C2435.357422,10.930453 2437.800537,9.874975 2441.460449,9.907157 
	C2462.771484,10.094533 2484.084961,9.998906 2506.511475,9.998906 
	C2451.070557,73.431725 2396.184570,136.229294 2341.144775,199.202789 
	C2401.374268,283.012848 2461.441650,366.597168 2521.934814,450.774139 
	C2519.959473,450.868500 2518.572510,450.991669 2517.185547,450.992523 
	C2496.688721,451.004913 2476.191406,450.928009 2455.695557,451.077942 
	C2452.542480,451.100983 2450.610840,450.229126 2448.755615,447.613983 
	C2400.314941,379.339111 2351.785400,311.127258 2303.272217,242.903992 
	C2299.325439,237.353989 2298.862549,237.419083 2294.115479,242.570862 
	C2271.996582,266.575897 2249.792725,290.502472 2227.736572,314.564850 
	C2226.353760,316.073547 2225.244385,318.494629 2225.230713,320.499542 
	C2224.949707,361.822021 2224.846924,403.145752 2224.709717,444.469269 
	C2224.703369,446.441956 2224.708984,448.414734 2224.708984,450.692139 
	C2205.967773,450.692139 2187.567139,450.692139 2168.580322,450.692139 
	C2168.580322,405.644836 2168.580322,360.572418 2168.581543,314.999939 
z"/>
<path fill="#FDFDFD" opacity="1.000000" stroke="none" 
	d="
M867.715210,281.000153 
	C867.713928,337.791229 867.713928,394.082520 867.713928,450.687988 
	C850.155640,450.687988 832.910828,450.687988 815.254761,450.687988 
	C815.254761,343.750183 815.254761,236.624008 815.254761,129.247375 
	C832.548950,129.247375 849.809021,129.247375 867.617676,129.247375 
	C867.617676,148.098618 867.617676,166.996552 867.617676,185.894485 
	C868.011963,186.090530 868.406311,186.286575 868.800598,186.482605 
	C869.644287,185.579910 870.783203,184.817612 871.289001,183.754196 
	C888.329041,147.928665 917.743469,129.015961 955.970886,123.491791 
	C988.897583,118.733620 1020.349060,123.670082 1048.194702,143.340073 
	C1070.694580,159.233841 1084.104614,181.444565 1089.630493,208.052780 
	C1092.282959,220.825256 1093.501831,234.106400 1093.577637,247.167587 
	C1093.960815,313.148132 1093.754150,379.132050 1093.754517,445.114807 
	C1093.754517,446.909851 1093.754639,448.704895 1093.754639,450.748199 
	C1075.780518,450.748199 1058.207764,450.748199 1040.123413,450.748199 
	C1040.123413,448.878235 1040.124268,447.100891 1040.123169,445.323547 
	C1040.082520,379.674103 1040.581177,314.017731 1039.738647,248.378571 
	C1039.395264,221.642471 1030.087280,197.846527 1007.235168,181.437332 
	C993.324036,171.448257 977.254456,168.211502 960.559998,168.345551 
	C934.998413,168.550781 912.660095,177.047333 895.147766,196.252838 
	C880.940369,211.833923 873.276001,230.619919 870.097107,251.190689 
	C868.604004,260.852478 868.467651,270.723938 867.715210,281.000153 
z"/>
<path fill="#FEFEFE" opacity="1.000000" stroke="none" 
	d="
M1837.001099,405.177246 
	C1856.638428,405.176605 1875.776245,405.176605 1895.210205,405.176605 
	C1895.210205,420.441956 1895.210205,435.378754 1895.210205,450.749115 
	C1894.183838,450.830414 1893.098755,450.990814 1892.013794,450.991333 
	C1867.681763,451.003418 1843.349487,451.038513 1819.017578,450.981415 
	C1803.247070,450.944427 1787.825562,448.754547 1773.497070,441.803314 
	C1750.848633,430.815643 1739.056885,411.817657 1735.122681,387.617310 
	C1733.766724,379.275940 1733.210815,370.720001 1733.189087,362.259766 
	C1733.032227,301.429932 1733.106934,240.599503 1733.108032,179.769272 
	C1733.108032,177.801102 1733.107910,175.832916 1733.107910,173.524506 
	C1713.935181,173.524506 1695.177246,173.524506 1676.209717,173.524506 
	C1676.209717,158.592834 1676.209717,144.005371 1676.209717,128.997696 
	C1692.652588,128.997696 1708.936157,128.999725 1725.219727,128.996750 
	C1732.265869,128.995453 1733.102905,128.154495 1733.105469,120.908806 
	C1733.115234,94.418106 1733.109375,67.927414 1733.109375,40.799248 
	C1750.643921,38.652027 1768.076050,36.517361 1786.171997,34.301403 
	C1786.171997,65.726784 1786.171997,97.014519 1786.171997,128.802658 
	C1820.555176,128.802658 1854.289307,128.802658 1888.510376,128.802658 
	C1888.510376,143.768341 1888.510376,158.238037 1888.510376,173.279114 
	C1854.963867,173.279114 1821.103027,173.279114 1786.735107,173.279114 
	C1786.735107,175.465485 1786.735229,177.088852 1786.735229,178.712234 
	C1786.733276,239.208878 1786.739868,299.705505 1786.719971,360.202148 
	C1786.717041,369.397522 1786.910278,378.624390 1791.166260,387.010437 
	C1797.840576,400.161835 1809.996582,403.959473 1823.508057,404.955475 
	C1827.821289,405.273438 1832.169312,405.117188 1837.001099,405.177246 
z"/>
<path fill="#FBFBFB" opacity="1.000000" stroke="none" 
	d="
M1564.339600,160.999786 
	C1564.340332,150.198425 1564.340332,139.897064 1564.340332,129.295792 
	C1581.876099,129.295792 1599.075806,129.295792 1616.463379,129.295792 
	C1616.463379,236.521622 1616.463379,343.558319 1616.463379,450.801025 
	C1599.109131,450.801025 1582.009033,450.801025 1564.338867,450.801025 
	C1564.338867,354.313080 1564.338867,257.906433 1564.339600,160.999786 
z"/>
<path fill="#000000" opacity="1.000000" stroke="none" 
	d="
M1283.563965,176.406982 
	C1303.185547,170.592514 1322.609619,169.913040 1342.050415,175.012283 
	C1369.167969,182.125122 1390.194946,197.969254 1403.024048,222.675568 
	C1426.374512,267.643524 1426.829346,313.655579 1404.067993,359.004242 
	C1386.054810,394.893127 1344.969116,415.444519 1305.006348,410.472839 
	C1262.697266,405.209259 1235.621216,381.025269 1222.295166,341.742126 
	C1209.933350,305.301422 1210.577881,268.348724 1225.135254,232.416336 
	C1236.081543,205.398010 1255.177856,186.178116 1283.563965,176.406982 
z"/>
<path fill="#000000" opacity="1.000000" stroke="none" 
	d="
M3057.907959,171.866745 
	C3094.940674,174.214966 3122.403809,191.437454 3140.367676,223.129944 
	C3156.395264,251.406281 3159.618408,282.183929 3155.562012,313.932159 
	C3152.553223,337.482849 3144.526367,359.094574 3128.602783,377.121887 
	C3105.545898,403.224670 3076.105957,413.870056 3041.923828,410.289825 
	C3002.044678,406.112976 2975.161621,383.700684 2961.225830,346.811615 
	C2946.296143,307.292023 2946.655029,267.260956 2963.964844,228.402618 
	C2980.969482,190.228928 3015.719727,169.790695 3057.907959,171.866745 
z"/>
<path fill="#010101" opacity="1.000000" stroke="none" 
	d="
M2658.616211,412.514526 
	C2623.411865,403.748566 2605.376221,367.759552 2620.357910,336.582123 
	C2626.918701,322.929260 2638.758057,315.719818 2652.497314,310.958618 
	C2666.816162,305.996613 2681.784668,305.274658 2696.685791,303.967041 
	C2722.024170,301.743469 2747.350830,299.384155 2772.668213,296.933533 
	C2775.733887,296.636810 2778.710449,295.422974 2781.752441,294.627869 
	C2784.671387,330.885986 2778.318359,364.035645 2750.523926,389.972015 
	C2734.021484,405.371429 2714.171387,413.885590 2691.690674,414.876038 
	C2680.846680,415.353851 2669.899414,413.477448 2658.616211,412.514526 
z"/>
<path fill="#010101" opacity="1.000000" stroke="none" 
	d="
M622.409546,301.364929 
	C636.596436,299.899231 650.331482,298.586182 664.034729,296.998901 
	C667.270020,296.624176 670.398499,295.326935 673.653564,294.432770 
	C674.372681,317.102020 673.974182,339.485046 663.650818,360.305542 
	C648.586060,390.688507 624.415161,408.940125 590.772217,414.124847 
	C571.840088,417.042480 553.285278,415.903656 535.816284,407.120605 
	C508.840546,393.557709 498.365601,358.198578 513.899841,332.786438 
	C521.541931,320.284821 533.541626,313.278900 547.271667,310.151245 
	C560.492676,307.139557 574.098389,305.664886 587.602600,304.095490 
	C599.000244,302.770874 610.494568,302.278259 622.409546,301.364929 
z"/>
</svg>